<mxfile host="65bd71144e">
    <diagram id="JRnsuq3U0lWd7wAlpPLQ" name="Page-1">
        <mxGraphModel dx="2085" dy="649" grid="1" gridSize="10" guides="1" tooltips="1" connect="1" arrows="1" fold="1" page="1" pageScale="1" pageWidth="850" pageHeight="1100" math="0" shadow="0">
            <root>
                <mxCell id="0"/>
                <mxCell id="1" parent="0"/>
                <mxCell id="37" value="" style="group" vertex="1" connectable="0" parent="1">
                    <mxGeometry x="-167.5" y="201" width="550" height="90" as="geometry"/>
                </mxCell>
                <mxCell id="2" value="&lt;b&gt;Final Combined Dataset&lt;/b&gt;" style="rounded=1;whiteSpace=wrap;html=1;verticalAlign=bottom;dashed=1;dashPattern=8 8;" vertex="1" parent="37">
                    <mxGeometry width="550" height="90" as="geometry"/>
                </mxCell>
                <mxCell id="3" value="push up" style="rounded=1;whiteSpace=wrap;html=1;" vertex="1" parent="37">
                    <mxGeometry x="280" y="30" width="80" height="30" as="geometry"/>
                </mxCell>
                <mxCell id="4" value="pull up" style="rounded=1;whiteSpace=wrap;html=1;" vertex="1" parent="37">
                    <mxGeometry x="190" y="30" width="80" height="30" as="geometry"/>
                </mxCell>
                <mxCell id="5" value="bench press" style="rounded=1;whiteSpace=wrap;html=1;" vertex="1" parent="37">
                    <mxGeometry x="10" y="30" width="80" height="30" as="geometry"/>
                </mxCell>
                <mxCell id="6" value="lat machine" style="rounded=1;whiteSpace=wrap;html=1;" vertex="1" parent="37">
                    <mxGeometry x="100" y="30" width="80" height="30" as="geometry"/>
                </mxCell>
                <mxCell id="7" value="squat" style="rounded=1;whiteSpace=wrap;html=1;" vertex="1" parent="37">
                    <mxGeometry x="460" y="30" width="80" height="30" as="geometry"/>
                </mxCell>
                <mxCell id="8" value="split squat" style="rounded=1;whiteSpace=wrap;html=1;" vertex="1" parent="37">
                    <mxGeometry x="370" y="30" width="80" height="30" as="geometry"/>
                </mxCell>
                <mxCell id="18" value="&lt;b&gt;Kaggle Dataset&lt;/b&gt;" style="rounded=1;whiteSpace=wrap;html=1;verticalAlign=top;dashed=1;dashPattern=8 8;container=0;strokeColor=#0000CC;" vertex="1" parent="1">
                    <mxGeometry x="12" y="70" width="460" height="90" as="geometry"/>
                </mxCell>
                <mxCell id="19" value="push up" style="rounded=1;whiteSpace=wrap;html=1;container=0;strokeColor=#0000CC;" vertex="1" parent="1">
                    <mxGeometry x="292" y="100" width="80" height="30" as="geometry"/>
                </mxCell>
                <mxCell id="20" value="pull up" style="rounded=1;whiteSpace=wrap;html=1;container=0;strokeColor=#0000CC;" vertex="1" parent="1">
                    <mxGeometry x="202" y="100" width="80" height="30" as="geometry"/>
                </mxCell>
                <mxCell id="21" value="bench press" style="rounded=1;whiteSpace=wrap;html=1;container=0;strokeColor=#0000CC;" vertex="1" parent="1">
                    <mxGeometry x="22" y="100" width="80" height="30" as="geometry"/>
                </mxCell>
                <mxCell id="22" value="lat machine" style="rounded=1;whiteSpace=wrap;html=1;container=0;strokeColor=#0000CC;" vertex="1" parent="1">
                    <mxGeometry x="112" y="100" width="80" height="30" as="geometry"/>
                </mxCell>
                <mxCell id="24" value="squat" style="rounded=1;whiteSpace=wrap;html=1;container=0;strokeColor=#0000CC;" vertex="1" parent="1">
                    <mxGeometry x="382" y="100" width="80" height="30" as="geometry"/>
                </mxCell>
                <mxCell id="27" value="&lt;b&gt;Fit3D Dataset&lt;/b&gt;" style="rounded=1;whiteSpace=wrap;html=1;verticalAlign=top;dashed=1;dashPattern=8 8;strokeColor=#CC0000;" vertex="1" parent="1">
                    <mxGeometry x="485" y="70" width="190" height="90" as="geometry"/>
                </mxCell>
                <mxCell id="28" value="push up" style="rounded=1;whiteSpace=wrap;html=1;strokeColor=#CC0000;" vertex="1" parent="1">
                    <mxGeometry x="495" y="100" width="80" height="30" as="geometry"/>
                </mxCell>
                <mxCell id="33" value="squat" style="rounded=1;whiteSpace=wrap;html=1;strokeColor=#CC0000;" vertex="1" parent="1">
                    <mxGeometry x="585" y="100" width="80" height="30" as="geometry"/>
                </mxCell>
                <mxCell id="9" value="&lt;b&gt;Own Dataset&lt;/b&gt;" style="rounded=1;whiteSpace=wrap;html=1;verticalAlign=top;dashed=1;dashPattern=8 8;strokeColor=#00CC00;" vertex="1" parent="1">
                    <mxGeometry x="-460" y="70" width="460" height="90" as="geometry"/>
                </mxCell>
                <mxCell id="10" value="push up" style="rounded=1;whiteSpace=wrap;html=1;strokeColor=#00CC00;" vertex="1" parent="1">
                    <mxGeometry x="-180" y="100" width="80" height="30" as="geometry"/>
                </mxCell>
                <mxCell id="11" value="pull up" style="rounded=1;whiteSpace=wrap;html=1;strokeColor=#00CC00;" vertex="1" parent="1">
                    <mxGeometry x="-270" y="100" width="80" height="30" as="geometry"/>
                </mxCell>
                <mxCell id="12" value="bench press" style="rounded=1;whiteSpace=wrap;html=1;strokeColor=#00CC00;" vertex="1" parent="1">
                    <mxGeometry x="-450" y="100" width="80" height="30" as="geometry"/>
                </mxCell>
                <mxCell id="13" value="lat machine" style="rounded=1;whiteSpace=wrap;html=1;strokeColor=#00CC00;" vertex="1" parent="1">
                    <mxGeometry x="-360" y="100" width="80" height="30" as="geometry"/>
                </mxCell>
                <mxCell id="15" value="split squat" style="rounded=1;whiteSpace=wrap;html=1;strokeColor=#00CC00;" vertex="1" parent="1">
                    <mxGeometry x="-90" y="100" width="80" height="30" as="geometry"/>
                </mxCell>
                <mxCell id="38" style="html=1;exitX=0.5;exitY=1;exitDx=0;exitDy=0;entryX=0.5;entryY=0;entryDx=0;entryDy=0;strokeColor=#00CC00;" edge="1" parent="1" source="12" target="5">
                    <mxGeometry relative="1" as="geometry"/>
                </mxCell>
                <mxCell id="39" style="html=1;exitX=0.5;exitY=1;exitDx=0;exitDy=0;entryX=0.5;entryY=0;entryDx=0;entryDy=0;strokeColor=#00CC00;" edge="1" parent="1" source="13" target="6">
                    <mxGeometry relative="1" as="geometry"/>
                </mxCell>
                <mxCell id="40" style="html=1;exitX=0.5;exitY=1;exitDx=0;exitDy=0;entryX=0.5;entryY=0;entryDx=0;entryDy=0;strokeColor=#00CC00;" edge="1" parent="1" source="11" target="4">
                    <mxGeometry relative="1" as="geometry"/>
                </mxCell>
                <mxCell id="41" style="html=1;exitX=0.5;exitY=1;exitDx=0;exitDy=0;entryX=0.5;entryY=0;entryDx=0;entryDy=0;strokeColor=#00CC00;" edge="1" parent="1" source="10" target="3">
                    <mxGeometry relative="1" as="geometry"/>
                </mxCell>
                <mxCell id="42" style="html=1;exitX=0.5;exitY=1;exitDx=0;exitDy=0;entryX=0.5;entryY=0;entryDx=0;entryDy=0;strokeColor=#00CC00;" edge="1" parent="1" source="15" target="8">
                    <mxGeometry relative="1" as="geometry"/>
                </mxCell>
                <mxCell id="45" style="html=1;exitX=0.5;exitY=1;exitDx=0;exitDy=0;entryX=0.5;entryY=0;entryDx=0;entryDy=0;strokeColor=#0000CC;" edge="1" parent="1" source="21" target="5">
                    <mxGeometry relative="1" as="geometry"/>
                </mxCell>
                <mxCell id="46" style="html=1;exitX=0.5;exitY=1;exitDx=0;exitDy=0;entryX=0.5;entryY=0;entryDx=0;entryDy=0;strokeColor=#0000CC;" edge="1" parent="1" source="22" target="6">
                    <mxGeometry relative="1" as="geometry"/>
                </mxCell>
                <mxCell id="47" style="html=1;exitX=0.5;exitY=1;exitDx=0;exitDy=0;entryX=0.5;entryY=0;entryDx=0;entryDy=0;strokeColor=#0000CC;" edge="1" parent="1" source="20" target="4">
                    <mxGeometry relative="1" as="geometry"/>
                </mxCell>
                <mxCell id="48" style="html=1;exitX=0.5;exitY=1;exitDx=0;exitDy=0;entryX=0.5;entryY=0;entryDx=0;entryDy=0;strokeColor=#0000CC;" edge="1" parent="1" source="19" target="3">
                    <mxGeometry relative="1" as="geometry"/>
                </mxCell>
                <mxCell id="49" style="html=1;exitX=0.5;exitY=1;exitDx=0;exitDy=0;entryX=0.5;entryY=0;entryDx=0;entryDy=0;strokeColor=#0000CC;" edge="1" parent="1" source="24" target="7">
                    <mxGeometry relative="1" as="geometry"/>
                </mxCell>
                <mxCell id="50" style="html=1;exitX=0.5;exitY=1;exitDx=0;exitDy=0;entryX=0.5;entryY=0;entryDx=0;entryDy=0;strokeColor=#CC0000;" edge="1" parent="1" source="28" target="3">
                    <mxGeometry relative="1" as="geometry"/>
                </mxCell>
                <mxCell id="51" style="html=1;exitX=0.5;exitY=1;exitDx=0;exitDy=0;entryX=0.5;entryY=0;entryDx=0;entryDy=0;strokeColor=#CC0000;" edge="1" parent="1" source="33" target="7">
                    <mxGeometry relative="1" as="geometry"/>
                </mxCell>
            </root>
        </mxGraphModel>
    </diagram>
</mxfile>